<!DOCTYPE svg PUBLIC "-//W3C//DTD SVG 1.1//EN" "http://www.w3.org/Graphics/SVG/1.1/DTD/svg11.dtd">
<!-- Uploaded to: SVG Repo, www.svgrepo.com, Transformed by: SVG Repo Mixer Tools -->
<svg fill="#292d32" height="800px" width="800px" version="1.1" id="Capa_1" xmlns="http://www.w3.org/2000/svg" xmlns:xlink="http://www.w3.org/1999/xlink" viewBox="0 0 490 490" xml:space="preserve" stroke="#292d32">
<g id="SVGRepo_bgCarrier" stroke-width="0"/>
<g id="SVGRepo_tracerCarrier" stroke-linecap="round" stroke-linejoin="round"/>
<g id="SVGRepo_iconCarrier"> <g> <g> <path d="M245,0C109.5,0,0,109.5,0,245s109.5,245,245,245s245-109.5,245-245S380.5,0,245,0z M245,449.3 c-112.6,0-204.3-91.7-204.3-204.3S132.4,40.7,245,40.7S449.3,132.4,449.3,245S357.6,449.3,245,449.3z"/> <path d="M205.4,155.3c-8.3-8.3-20.9-8.3-29.2,0l-75.1,75.1c-8.3,8.3-8.3,20.9,0,29.2l75.1,75.1c11.5,10.6,23.7,5.8,28.1,0 c8.3-8.3,8.3-20.9,0-29.2L143.9,245l61.5-60.5C213.7,176.2,213.7,163.7,205.4,155.3z"/> <path d="M388.9,230.4l-75.1-75.1c-8.3-8.3-20.9-8.3-29.2,0s-8.3,20.9,0,29.2l61.5,60.5l-60.5,60.5c-8.3,8.3-8.3,20.9,0,29.2 c4.4,5.8,16.7,10.6,28.1,0l75.1-75.1C397.2,251.3,397.2,238.7,388.9,230.4z"/> </g> </g> </g>
</svg>